<?xml version="1.0" encoding="UTF-8"?>
<svg width="12px" height="8px" viewBox="0 0 12 8" version="1.1" xmlns="http://www.w3.org/2000/svg" xmlns:xlink="http://www.w3.org/1999/xlink">
    <title>Global / Atom / Icon / Arrow</title>
    <g id="Design" stroke="none" stroke-width="1" fill="none" fill-rule="evenodd">
        <g id="OMAW_Hifi_Leadership_D_Default_1920px" transform="translate(-917.000000, -44.000000)" fill="#010F3A" fill-rule="nonzero">
            <g id="Group-4" transform="translate(420.000000, 24.000000)">
                <g id="Group" transform="translate(375.000000, 13.000000)">
                    <g id="Global-/-Atom-/-Icon-/-Arrow" transform="translate(122.000000, 7.000000)">
                        <path d="M6.63713629,0.264559016 C6.28437156,-0.0887849759 5.71562844,-0.0887849759 5.36286371,0.268164567 L0.264573543,5.37723024 C-0.0881911809,5.72696868 -0.0881911809,6.29784758 0.264573543,6.65119157 L1.11528847,7.49969789 C1.46445355,7.85304188 2.03319668,7.85304188 2.3859614,7.49969789 L6,3.8785229 L9.61763824,7.49609234 C9.96680332,7.84943633 10.5355464,7.84943633 10.8883112,7.49609234 L11.7354265,6.64638417 C12.0881912,6.29664573 12.0881912,5.72576683 11.7354265,5.37362469 L6.63713629,0.264559016 Z" id="Path" transform="translate(6.000000, 3.882353) scale(1, -1) translate(-6.000000, -3.882353) "></path>
                    </g>
                </g>
            </g>
        </g>
    </g>
</svg>