<?xml version="1.0" encoding="UTF-8"?>
<svg width="34px" height="36px" viewBox="0 0 34 36" version="1.1" xmlns="http://www.w3.org/2000/svg" xmlns:xlink="http://www.w3.org/1999/xlink">
    <title>Global / Atom / Icon / Menu / Close</title>
    <g id="Design" stroke="none" stroke-width="1" fill="none" fill-rule="evenodd">
        <g id="OMAW_Hifi_Leadership_D_Modal" transform="translate(-1164.000000, -2619.000000)" fill="#010F3A">
            <g id="MODAL" transform="translate(180.000000, 2580.000000)">
                <g id="Global-/-Atom-/-Icon-/-Menu-/-Close" transform="translate(983.515178, 39.515178)">
                    <path d="M-4.60787709,16.0324313 L39.5738946,15.8584873 C40.1261751,15.856313 40.5756495,16.3022621 40.5778238,16.8545426 C40.5778342,16.8571672 40.5778342,16.8597919 40.5778238,16.8624165 L40.5735768,17.9411579 C40.5714146,18.4903659 40.1267296,18.9350509 39.5775215,18.9372132 L-4.60425014,19.1111572 C-5.15653061,19.1133315 -5.60600504,18.6673824 -5.60817937,18.1151019 C-5.6081897,18.1124772 -5.6081897,18.1098526 -5.60817937,18.1072279 L-5.60393236,17.0284866 C-5.60177012,16.4792785 -5.1570851,16.0345935 -4.60787709,16.0324313 Z" id="Rectangle-Copy" transform="translate(17.484822, 17.484822) rotate(-45.000000) translate(-17.484822, -17.484822) "></path>
                    <path d="M-4.60425014,15.8584873 L39.5775215,16.0324313 C40.1267296,16.0345935 40.5714146,16.4792785 40.5735768,17.0284866 L40.5778238,18.1072279 C40.5799982,18.6595084 40.134049,19.1089828 39.5817686,19.1111572 C39.5791439,19.1111675 39.5765192,19.1111675 39.5738946,19.1111572 L-4.60787709,18.9372132 C-5.1570851,18.9350509 -5.60177012,18.4903659 -5.60393236,17.9411579 L-5.60817937,16.8624165 C-5.6103537,16.3101361 -5.16440457,15.8606616 -4.6121241,15.8584873 C-4.60949946,15.858477 -4.60687479,15.858477 -4.60425014,15.8584873 Z" id="Rectangle-Copy-3" transform="translate(17.484822, 17.484822) rotate(45.000000) translate(-17.484822, -17.484822) "></path>
                </g>
            </g>
        </g>
    </g>
</svg>