<?xml version="1.0" encoding="UTF-8"?>
<svg width="24px" height="24px" viewBox="0 0 24 24" version="1.1" xmlns="http://www.w3.org/2000/svg" xmlns:xlink="http://www.w3.org/1999/xlink">
    <title>Global / Atom / Icon / Instagram</title>
    <g id="Design" stroke="none" stroke-width="1" fill="none" fill-rule="evenodd">
        <g id="OMAW_Hifi_BecomeAMember_D_Default_1920px" transform="translate(-1475.000000, -1975.000000)" fill="#010F3A">
            <g id="Desktop-/-Organism-/-Nav-/-Footer-/-Default" transform="translate(0.000000, 1631.000000)">
                <g id="Group-13" transform="translate(1379.000000, 344.000000)">
                    <g id="Group-13" transform="translate(96.000000, 0.000000)">
                        <path d="M2.19291841,12.0107918 C2.19291841,13.0752458 2.17380295,14.1401695 2.19864835,15.2040599 C2.22053484,16.1407644 2.21499277,17.0812262 2.37308279,18.0102282 C2.55423347,19.0747292 2.98116107,20.0070188 3.82853484,20.7128818 C4.61743504,21.3700403 5.55728631,21.6275119 6.55185383,21.7252027 C7.75969727,21.8438407 8.97312976,21.830784 10.1845896,21.8396607 C11.7181943,21.8508857 13.2519869,21.8331323 14.7856855,21.8285765 C15.6853333,21.8258994 16.5848871,21.8080051 17.4808245,21.7238877 C18.3052315,21.6465335 19.0974664,21.4488505 19.80239,20.9898446 C21.0681435,20.1656724 21.5820534,18.9254219 21.7222491,17.4850462 C21.8321982,16.3551206 21.8303196,15.2203104 21.8358617,14.0870501 C21.8444566,12.3342517 21.8388206,10.5812654 21.8209262,8.82856086 C21.8109693,7.85188768 21.7990867,6.87404032 21.6319321,5.90582114 C21.3117129,4.05077613 20.0656855,2.78272133 18.2135994,2.4191049 C17.1701865,2.21428298 16.1126836,2.21813425 15.0596894,2.20460783 C13.0329341,2.1785413 11.0054742,2.18211077 8.97862486,2.2033867 C7.99504757,2.21371938 7.00724326,2.21526928 6.03146244,2.37772721 C4.71911802,2.59626341 3.64076185,3.1909092 2.94696929,4.36258826 C2.50393211,5.1107683 2.33654267,5.94480353 2.27961899,6.80250998 C2.16445657,8.53694443 2.18568553,10.2741029 2.19291841,12.0107918 M23.9861395,11.9523182 C24.0006523,13.6496959 24.016621,15.3473084 23.9309536,17.0435589 C23.8656229,18.3370227 23.629756,19.5884513 22.9673842,20.7219934 C21.9896307,22.3952301 20.5066092,23.3574845 18.6301004,23.7459934 C17.6061787,23.9580012 16.5648323,23.9773984 15.5257873,23.9860403 C13.4287227,24.003465 11.3314233,24.0124826 9.23431175,24.0010697 C8.13294189,23.9951049 7.02955246,23.9860403 5.93372467,23.8416646 C2.81278533,23.4304708 0.714311753,21.3926313 0.210546587,18.3590971 C0.04982643,17.3910658 0.027752066,16.4134532 0.0196737881,15.4367331 C0.00314149847,13.433602 -0.00634578137,11.430283 0.00487926755,9.42715186 C0.0113137098,8.27858043 0.0137559799,7.12714404 0.166069091,5.98533582 C0.452707056,3.83613816 1.41557203,2.10804423 3.34022173,1.00470177 C4.26199081,0.476279065 5.27337242,0.220639143 6.32519238,0.123793742 C7.50964639,0.0147369902 8.69837438,0.001633272 9.88653876,0.00628297846 C12.2568088,0.0156293581 14.6277834,-0.0422806223 16.9971141,0.0744317064 C18.4043313,0.143754603 19.7598382,0.406721335 20.9649106,1.18153151 C22.4934898,2.16435734 23.3767932,3.58674482 23.7429928,5.35081527 C23.9428832,6.31368024 23.971345,7.29063523 23.982711,8.26740235 C23.9969419,9.49553542 23.9861395,10.7239973 23.9861395,11.9523182" id="Fill-1"></path>
                        <path d="M15.9929701,12.0206078 C15.9929701,9.80598552 14.2141051,8.01509707 12.0124926,8.01312276 C9.81383895,8.0111049 8.01590549,9.80382505 8.00884043,12.0051088 C8.0019094,14.1784474 9.80341234,15.9967174 11.9641168,15.9970932 C14.2063556,15.9975159 15.9929701,14.2341029 15.9929701,12.0206078 M12.0008918,18.1818945 C8.43033993,18.162917 5.78010119,15.2231753 5.83322056,11.9085922 C5.88746713,8.52731625 8.72472741,5.77220079 12.1523125,5.83250607 C15.4534632,5.89055695 18.1847665,8.66413034 18.1777819,12.0596842 C18.1708174,15.4263534 15.3873341,18.1851793 12.0008918,18.1818945" id="Fill-4"></path>
                        <path d="M18.4137388,7.03447793 C17.5989599,7.03179218 16.9708738,6.40854364 16.9716715,5.60339296 C16.9724707,4.78682936 17.6158679,4.14521683 18.4258562,4.15324814 C19.2339658,4.16127946 19.8551008,4.79293503 19.852619,5.60423836 C19.8501693,6.41817182 19.2274374,7.03714638 18.4137388,7.03447793" id="Fill-6"></path>
                    </g>
                </g>
            </g>
        </g>
    </g>
</svg>