<?xml version="1.0" encoding="UTF-8"?>
<svg width="24px" height="23px" viewBox="0 0 24 23" version="1.1" xmlns="http://www.w3.org/2000/svg" xmlns:xlink="http://www.w3.org/1999/xlink">
    <title>Global / Atom / Icon / LinkedIn</title>
    <g id="Design" stroke="none" stroke-width="1" fill="none" fill-rule="evenodd">
        <g id="OMAW_Hifi_BecomeAMember_D_Default_1920px" transform="translate(-1379.000000, -1976.000000)" fill="#010F3A">
            <g id="Desktop-/-Organism-/-Nav-/-Footer-/-Default" transform="translate(0.000000, 1631.000000)">
                <g id="Group-13" transform="translate(1379.000000, 344.000000)">
                    <g id="Group-13" transform="translate(0.000000, 1.000000)">
                        <path d="M13.4473365,9.50596124 C13.4473365,8.89688016 13.4239851,8.37058286 13.4555257,7.84752881 C13.4766878,7.49636665 13.349877,7.43085313 13.0251473,7.43490719 C11.5962554,7.45282611 10.1666338,7.45915043 8.73806621,7.43190719 C8.34457972,7.42436665 8.26560675,7.55855584 8.28912026,7.90760989 C8.32163377,8.39085313 8.32122837,8.87693422 8.32049864,9.361718 C8.31376891,13.7428531 8.3073635,18.1239883 8.28798512,22.5050423 C8.28660675,22.8215018 8.36590404,22.9110964 8.68698512,22.9070423 C10.1293365,22.8891234 11.5722554,22.8859612 13.0145257,22.9086639 C13.3737959,22.9143396 13.4582824,22.820691 13.4562554,22.4649883 C13.4401203,19.687718 13.4549581,16.9102045 13.4427959,14.1328531 C13.4390662,13.2914748 13.7107689,12.5796639 14.2855527,11.9730153 C15.6845257,10.4965288 18.0024716,11.0245288 18.5995527,12.9596099 C18.7190662,13.3470153 18.7989311,13.7453666 18.8000662,14.1518261 C18.8079311,16.9425558 18.8153905,19.7332856 18.8080932,22.5240153 C18.8072824,22.8226369 18.8775797,22.9105288 19.1854446,22.9069612 C20.654877,22.8897721 22.1246338,22.8901775 23.5940662,22.9066369 C23.8973094,22.9100423 23.9757149,22.8304207 23.9745125,22.5268531 C23.9625797,19.6012045 23.9813094,16.6753937 23.9605527,13.7498261 C23.9520392,12.5452045 23.7714716,11.3602856 23.2576608,10.2509342 C22.2465797,8.06815043 20.2253094,7.00558286 17.8120932,7.08244773 C16.4693094,7.12517746 15.2709311,7.52539367 14.3147419,8.50679908 C14.0277149,8.80144773 13.7735257,9.12804232 13.4473365,9.50596124" id="Fill-1"></path>
                        <path d="M0.337693233,15.1804207 C0.337693233,17.6195018 0.342152692,20.0585018 0.331936476,22.4975018 C0.330639179,22.7926369 0.378233773,22.9130423 0.717558098,22.9083188 C2.18601756,22.8869342 3.65512567,22.8885558 5.12374729,22.9072856 C5.44117972,22.9113396 5.49566621,22.8071504 5.49517972,22.5190694 C5.48690945,17.6275288 5.48512567,12.7359072 5.49794258,7.84436665 C5.49890945,7.48963692 5.38369323,7.43182611 5.06439594,7.43555584 C3.62277431,7.45225854 2.18058512,7.45631259 0.739044584,7.43328557 C0.384233773,7.42760989 0.328612152,7.54274503 0.330355229,7.86333962 C0.343774314,10.3023396 0.337693233,12.7413396 0.337693233,15.1804207" id="Fill-4"></path>
                        <path d="M3.06221215,5.35696935 C3.51626621,5.37205043 4.10296891,5.24094232 4.62877972,4.90510449 C6.10753648,3.96059097 6.22494188,1.745618 4.86132026,0.63342881 C3.65199594,-0.35276038 1.52888783,-0.16530092 0.584779719,1.04175313 C-0.090544605,1.90526665 -0.16967974,2.88286124 0.289077017,3.85964503 C0.797698638,4.94272611 1.73694188,5.35899638 3.06221215,5.35696935" id="Fill-6"></path>
                    </g>
                </g>
            </g>
        </g>
    </g>
</svg>