<?xml version="1.0" encoding="UTF-8"?><svg version="1.1" width="30px" height="22px" viewBox="0 0 30.0 22.0" xmlns="http://www.w3.org/2000/svg" xmlns:xlink="http://www.w3.org/1999/xlink"><defs><clipPath id="i0"><path d="M29,20 C29.5522847,20 30,20.4477153 30,21 C30,21.5522847 29.5522847,22 29,22 L1,22 C0.44771525,22 -1.5440923e-16,21.5522847 0,21 C-6.76353751e-17,20.4477153 0.44771525,20 1,20 L29,20 Z M29,10 C29.5522847,10 30,10.4477153 30,11 C30,11.5522847 29.5522847,12 29,12 L1,12 C0.44771525,12 -1.5440923e-16,11.5522847 0,11 C-6.76353751e-17,10.4477153 0.44771525,10 1,10 L29,10 Z M29,0 C29.5522847,-1.01453063e-16 30,0.44771525 30,1 C30,1.55228475 29.5522847,2 29,2 L1,2 C0.44771525,2 -1.5440923e-16,1.55228475 0,1 C-6.76353751e-17,0.44771525 0.44771525,1.01453063e-16 1,0 L29,0 Z"></path></clipPath></defs><g transform="translate(-325.0 -28.0)"><g transform="translate(325.0 28.0)"><g clip-path="url(#i0)"><polygon points="0,0 30,0 30,22 0,22 0,0" stroke="none" fill="#FECA30"></polygon></g></g></g></svg>