<?xml version="1.0" encoding="UTF-8"?>
<svg width="142px" height="37px" viewBox="0 0 142 37" version="1.1" xmlns="http://www.w3.org/2000/svg" xmlns:xlink="http://www.w3.org/1999/xlink">
    <title>Global / Atom / Logo / OMAW / Color</title>
    <defs>
        <polygon id="path-1" points="0 35.089568 99.5888583 35.089568 99.5888583 0.332876712 0 0.332876712"></polygon>
        <path d="M6.14354468,0.0247665006 C5.9510688,0.0247665006 5.81039508,0.0623925304 5.72152351,0.135739475 L5.72152351,0.135739475 C5.63217668,0.210515255 5.55090909,0.344349614 5.47724549,0.536766273 L5.47724549,0.536766273 L0.101228051,15.7186312 C0.0570298879,15.8524655 0.0346931818,15.9710589 0.0346931818,16.0748877 L0.0346931818,16.0748877 C0.0346931818,16.2230105 0.071762609,16.3387462 0.145901463,16.4197136 L0.145901463,16.4197136 C0.220040318,16.5016336 0.316040629,16.5425936 0.434377646,16.5425936 L0.434377646,16.5425936 L3.81102226,16.5425936 C4.07763699,16.5425936 4.25490489,16.4311443 4.34425171,16.2087221 L4.34425171,16.2087221 L5.25482892,13.5820442 C5.29902709,13.4186805 5.41023537,13.3367606 5.58845377,13.3367606 L5.58845377,13.3367606 L10.2972215,13.3367606 C10.4003506,13.3367606 10.4711627,13.3553355 10.5082321,13.3924852 L10.5082321,13.3924852 C10.5453015,13.429635 10.5856977,13.5006005 10.6303711,13.603953 L10.6303711,13.603953 L11.4967502,16.1639519 C11.570889,16.4163797 11.7334242,16.5425936 11.9853062,16.5425936 L11.9853062,16.5425936 L16.3390629,16.5425936 C16.4573999,16.5425936 16.5467467,16.4944894 16.6056776,16.3978048 L16.6056776,16.3978048 C16.6646085,16.3015965 16.6945492,16.186337 16.6945492,16.0525026 L16.6945492,16.0525026 C16.6945492,15.9934441 16.6793412,15.9048562 16.6498758,15.7853102 L16.6498758,15.7853102 L11.319007,0.62583042 C11.2448682,0.447702127 11.1374619,0.302913354 10.9967881,0.191464101 L10.9967881,0.191464101 C10.8561144,0.0800148482 10.696906,0.0247665006 10.5196381,0.0247665006 L10.5196381,0.0247665006 L6.14354468,0.0247665006 Z M6.3878227,9.30791772 C6.3878227,9.21885358 6.40208017,9.14455408 6.43202086,9.08501922 L6.43202086,9.08501922 L7.7874312,5.30098369 C7.81689664,5.22668419 7.8610948,5.18905816 7.92050093,5.18905816 L7.92050093,5.18905816 C7.97943182,5.18905816 8.02362998,5.22668419 8.05357067,5.30098369 L8.05357067,5.30098369 L9.3866443,9.10692805 C9.41610974,9.22647404 9.43084247,9.30029726 9.43084247,9.32982655 L9.43084247,9.32982655 C9.43084247,9.47842556 9.34909963,9.55272506 9.18656445,9.55272506 L9.18656445,9.55272506 L6.65396217,9.55272506 C6.47669427,9.55272506 6.3878227,9.47128137 6.3878227,9.30791772 L6.3878227,9.30791772 Z" id="path-3"></path>
        <linearGradient x1="-12.9644504%" y1="53.0591102%" x2="672.055717%" y2="26.9188597%" id="linearGradient-5">
            <stop stop-color="#FFDF00" offset="0%"></stop>
            <stop stop-color="#F9A818" offset="100%"></stop>
        </linearGradient>
        <path d="M2.97094012,0.167604289 C2.74020095,0.167604289 2.61072808,0.317870204 2.58205908,0.61743879 L2.58205908,0.61743879 L2.23618154,3.94929647 C2.22138464,4.12942292 2.13491526,4.21900452 1.97677339,4.21900452 L1.97677339,4.21900452 L0.70146555,4.21900452 C0.384719405,4.21900452 0.226115131,4.36204612 0.226115131,4.64716606 L0.226115131,4.64716606 L0.226115131,6.7629294 C0.226115131,7.09332176 0.399053902,7.25803632 0.744931444,7.25803632 L0.744931444,7.25803632 L1.78210167,7.25803632 C1.91203695,7.25803632 1.99850633,7.28837848 2.04150982,7.34809955 L2.04150982,7.34809955 C2.08451332,7.40878386 2.10670867,7.51329573 2.10670867,7.66356164 L2.10670867,7.66356164 L2.10670867,13.1564551 C2.10670867,14.1013965 2.4373269,14.8373142 3.10041299,15.3622817 L3.10041299,15.3622817 C3.76349908,15.8877307 4.62773054,16.1502145 5.69403216,16.1502145 L5.69403216,16.1502145 C6.90414115,16.1502145 7.87703734,16.0977177 8.61179591,15.9922426 L8.61179591,15.9922426 C9.02934594,15.902661 9.23835216,15.6772621 9.23835216,15.3170092 L9.23835216,15.3170092 L9.2600851,13.5162264 C9.2600851,13.3963026 9.22401766,13.2908275 9.15234517,13.2007643 L9.15234517,13.2007643 C9.07974788,13.1111827 8.98634245,13.0659102 8.87074167,13.0659102 L8.87074167,13.0659102 L7.94177378,13.0659102 C7.42295746,13.0659102 7.04101248,12.9686227 6.79640122,12.773566 L6.79640122,12.773566 C6.55132756,12.5785093 6.42879073,12.2784591 6.42879073,11.8734154 L6.42879073,11.8734154 L6.42879073,7.55086221 C6.42879073,7.35628711 6.52265857,7.25803632 6.70993184,7.25803632 L6.70993184,7.25803632 L8.71999825,7.25803632 C8.89293702,7.25803632 9.02564672,7.21324552 9.11997695,7.1231823 L9.11997695,7.1231823 C9.21291998,7.03311907 9.2600851,6.91319531 9.2600851,6.7629294 L9.2600851,6.7629294 L9.2600851,4.62452985 C9.2600851,4.33989153 9.10148083,4.19684993 8.78473468,4.19684993 L8.78473468,4.19684993 L6.79640122,4.19684993 C6.63779695,4.19684993 6.55872601,4.11449265 6.55872601,3.94929647 L6.55872601,3.94929647 L6.55872601,0.662711213 C6.55872601,0.512445298 6.51895934,0.39252154 6.43988841,0.302458315 L6.43988841,0.302458315 C6.36035507,0.212395091 6.26325041,0.167604289 6.14811203,0.167604289 L6.14811203,0.167604289 L2.97094012,0.167604289 Z" id="path-6"></path>
        <linearGradient x1="-31.5512957%" y1="55.7549577%" x2="361.14547%" y2="27.9644686%" id="linearGradient-8">
            <stop stop-color="#FFDF00" offset="0%"></stop>
            <stop stop-color="#F9A818" offset="100%"></stop>
        </linearGradient>
        <path d="M20.4963174,0.0247665006 C20.0985648,0.0247665006 19.8625618,0.180509687 19.7887813,0.49199606 L19.7887813,0.49199606 L17.5342195,8.99595507 C17.519085,9.08501922 17.4821948,9.12216897 17.4235488,9.10692805 L17.4235488,9.10692805 C17.3644298,9.09263968 17.3204452,9.04024901 17.2906493,8.95166114 L17.2906493,8.95166114 L14.8596764,0.49199606 C14.8152189,0.328632412 14.7409655,0.210515255 14.6383349,0.135739475 L14.6383349,0.135739475 C14.5352314,0.0623925304 14.3730089,0.0247665006 14.1521403,0.0247665006 L14.1521403,0.0247665006 L11.0571429,0.0247665006 C10.6589174,0.0247665006 10.4233874,0.180509687 10.3496069,0.49199606 L10.3496069,0.49199606 L8.02835885,8.84021189 C7.99856288,8.95880532 7.96261853,9.01834018 7.91816105,9.01834018 L7.91816105,9.01834018 C7.85904206,9.01834018 7.8074903,8.92927603 7.76350577,8.75114774 L7.76350577,8.75114774 L5.42050196,0.49199606 C5.37604448,0.328632412 5.30226398,0.210515255 5.19916046,0.135739475 L5.19916046,0.135739475 C5.09558399,0.0623925304 4.93383443,0.0247665006 4.71249294,0.0247665006 L4.71249294,0.0247665006 L1.06508772,0.0247665006 C0.844219178,0.0247665006 0.671118775,0.0800148482 0.545786516,0.191464101 L0.545786516,0.191464101 C0.420927209,0.302913354 0.358024604,0.455322588 0.358024604,0.648215526 L0.358024604,0.648215526 C0.358024604,0.707750383 0.372686113,0.796338251 0.402482084,0.915407965 L0.402482084,0.915407965 L4.91207865,15.9862999 C4.98538619,16.1791928 5.08139543,16.3201714 5.19916046,16.4087592 L5.19916046,16.4087592 C5.31692549,16.4978234 5.48671523,16.5425936 5.70758378,16.5425936 L5.70758378,16.5425936 L8.86879441,16.5425936 C9.08966296,16.5425936 9.26276336,16.4978234 9.38809562,16.4087592 L9.38809562,16.4087592 C9.51342788,16.3201714 9.60565351,16.1791928 9.66429954,15.9862999 L9.66429954,15.9862999 L11.941563,8.19437775 C12.0295321,7.97195553 12.0962183,7.86050627 12.1402028,7.86050627 L12.1402028,7.86050627 C12.1993218,7.86050627 12.2508736,7.95766716 12.2948581,8.15008382 L12.2948581,8.15008382 L14.5943504,15.9862999 C14.6969809,16.3568448 14.962307,16.5425936 15.3898555,16.5425936 L15.3898555,16.5425936 L18.4403954,16.5425936 C18.6612639,16.5425936 18.8310537,16.4978234 18.9488187,16.4087592 L18.9488187,16.4087592 C19.0665837,16.3201714 19.162593,16.1791928 19.2359005,15.9862999 L19.2359005,15.9862999 L23.7237413,0.915407965 C23.7530643,0.796338251 23.7681988,0.707750383 23.7681988,0.648215526 L23.7681988,0.648215526 C23.7681988,0.455322588 23.7052962,0.302913354 23.5799639,0.191464101 L23.5799639,0.191464101 C23.4546316,0.0800148482 23.2815312,0.0247665006 23.0606627,0.0247665006 L23.0606627,0.0247665006 L20.4963174,0.0247665006 Z" id="path-9"></path>
        <linearGradient x1="-144.118185%" y1="55.0280431%" x2="341.020244%" y2="41.7894163%" id="linearGradient-11">
            <stop stop-color="#FFDF00" offset="0%"></stop>
            <stop stop-color="#F9A818" offset="100%"></stop>
        </linearGradient>
        <path d="M3.12732846,0.926124666 C2.18632451,1.44916917 1.44550381,2.18191132 0.905341857,3.12387128 L0.905341857,3.12387128 C0.364228919,4.06583124 0.0936724505,5.14982897 0.0936724505,6.37634433 L0.0936724505,6.37634433 C0.0936724505,7.55727324 0.356621005,8.60768096 0.882993607,9.52708762 L0.882993607,9.52708762 C1.40889072,10.4464943 2.13829954,11.1681997 3.07169559,11.6917241 L3.07169559,11.6917241 C4.00509163,12.2152484 5.07210167,12.4762908 6.27225023,12.4762908 L6.27225023,12.4762908 C7.47239878,12.4762908 8.54654125,12.2152484 9.49467763,11.6917241 L9.49467763,11.6917241 C10.442814,11.1681997 11.1803062,10.4431353 11.7062033,9.5160509 L11.7062033,9.5160509 C12.2321005,8.58896652 12.495049,7.54191781 12.495049,6.37634433 L12.495049,6.37634433 C12.495049,5.17958012 12.2359044,4.10709897 11.7171397,3.1574613 L11.7171397,3.1574613 C11.198375,2.20830348 10.4689662,1.4678836 9.52843775,0.937161384 L9.52843775,0.937161384 C8.58743379,0.406439167 7.50901187,0.140598201 6.29459848,0.140598201 L6.29459848,0.140598201 C5.12393059,0.140598201 4.06833242,0.402600308 3.12732846,0.926124666 M4.99412055,8.82073762 C4.71976012,8.29721326 4.58329315,7.45218449 4.58329315,6.28613115 L4.58329315,6.28613115 C4.58329315,5.11959796 4.71976012,4.26785118 4.99412055,3.72897139 L4.99412055,3.72897139 C5.26848097,3.19105131 5.70213212,2.92185134 6.29459848,2.92185134 L6.29459848,2.92185134 C6.88706484,2.92185134 7.32071598,3.18769231 7.59460091,3.71793467 L7.59460091,3.71793467 C7.86848584,4.24865689 8.00590381,5.10520224 8.00590381,6.28613115 L8.00590381,6.28613115 C8.00590381,7.43778877 7.86848584,8.27849882 7.59460091,8.80922104 L7.59460091,8.80922104 C7.32071598,9.33994326 6.88706484,9.60578423 6.29459848,9.60578423 L6.29459848,9.60578423 C5.70213212,9.60578423 5.26848097,9.34378212 4.99412055,8.82073762" id="path-12"></path>
        <linearGradient x1="-454.45283%" y1="69.4462199%" x2="466.270377%" y2="33.9506704%" id="linearGradient-14">
            <stop stop-color="#FFDF00" offset="0%"></stop>
            <stop stop-color="#F9A818" offset="100%"></stop>
        </linearGradient>
        <path d="M6.18020447,0.723624868 C5.54913886,1.11278917 5.05747282,1.58400908 4.70520634,2.13680473 L4.70520634,2.13680473 C4.63126806,2.22653806 4.55827167,2.27116479 4.48527527,2.27116479 L4.48527527,2.27116479 C4.38213843,2.27116479 4.33080548,2.20446462 4.33080548,2.06962471 L4.33080548,2.06962471 L4.33080548,0.813358191 C4.33080548,0.678998136 4.29454275,0.571030234 4.22107541,0.488494772 L4.22107541,0.488494772 C4.14760807,0.406439167 4.05200634,0.364691578 3.93521211,0.364691578 L3.93521211,0.364691578 L0.501084932,0.364691578 C0.222285797,0.364691578 0.0828862293,0.53744022 0.0828862293,0.881018076 L0.0828862293,0.881018076 L0.0828862293,11.6917241 C0.0828862293,11.8860663 0.12291651,12.0281041 0.203918962,12.1173575 L0.203918962,12.1173575 C0.284450469,12.2070909 0.434681759,12.2521975 0.655083778,12.2521975 L0.655083778,12.2521975 L3.75860793,12.2521975 C4.00820851,12.2521975 4.19140591,12.2037319 4.30867109,12.1063208 L4.30867109,12.1063208 C4.42640721,12.0093896 4.48527527,11.8409597 4.48527527,11.6019908 L4.48527527,11.6019908 L4.48527527,5.63592445 C4.48527527,5.24724001 4.6793044,4.89550458 5.06830454,4.58167788 L5.06830454,4.58167788 C5.45683374,4.26785118 5.89339928,4.11045797 6.37800115,4.11045797 L6.37800115,4.11045797 C7.00859582,4.11045797 7.64013237,4.19299343 8.27119798,4.3575845 L8.27119798,4.3575845 C8.40306244,4.38733566 8.50949589,4.37198022 8.59049834,4.31199805 L8.59049834,4.31199805 C8.67102985,4.2529756 8.71153107,4.14788684 8.71153107,3.99817135 L8.71153107,3.99817135 L8.71153107,0.589264813 C8.71153107,0.290313691 8.43979611,0.140598201 7.89679712,0.140598201 L7.89679712,0.140598201 C7.38299668,0.140598201 6.81079913,0.334940423 6.18020447,0.723624868" id="path-15"></path>
        <linearGradient x1="-383.910998%" y1="74.0305963%" x2="281.30495%" y2="37.492269%" id="linearGradient-17">
            <stop stop-color="#FFDF00" offset="0%"></stop>
            <stop stop-color="#F9A818" offset="100%"></stop>
        </linearGradient>
        <path d="M0.62830137,0.0247665006 C0.496027397,0.0247665006 0.393042661,0.0690604344 0.319347162,0.158124581 L0.319347162,0.158124581 C0.245651663,0.247188727 0.208803914,0.373878904 0.208803914,0.536766273 L0.208803914,0.536766273 L0.208803914,15.9862999 C0.208803914,16.1791928 0.253210176,16.3201714 0.341550294,16.4087592 L0.341550294,16.4087592 C0.429890411,16.4978234 0.584367515,16.5425936 0.804981605,16.5425936 L0.804981605,16.5425936 L3.91861644,16.5425936 C4.16851977,16.5425936 4.34897926,16.4944894 4.4595225,16.3978048 L4.4595225,16.3978048 C4.57006575,16.3015965 4.62486497,16.1344226 4.62486497,15.8972357 L4.62486497,15.8972357 L4.62486497,13.648247 C4.62486497,13.3367606 4.69100196,13.129103 4.82374834,13.0252742 L4.82374834,13.0252742 L5.88335734,12.0231835 C5.97169746,11.9341193 6.04539295,11.8898254 6.10444384,11.8898254 L6.10444384,11.8898254 C6.19231155,11.8898254 6.27309315,11.9712691 6.34726106,12.1346327 L6.34726106,12.1346327 L7.93691076,15.9634385 C8.09894638,16.3497006 8.3417636,16.5425936 8.66536243,16.5425936 L8.66536243,16.5425936 L12.4413119,16.5425936 C12.5882305,16.5425936 12.702553,16.4978234 12.783807,16.4087592 L12.783807,16.4087592 C12.8645886,16.3201714 12.9047432,16.2163426 12.9047432,16.0972728 L12.9047432,16.0972728 L12.8612818,15.9191446 L9.32814951,9.04024901 C9.23980939,8.86259699 9.19587554,8.72876263 9.19587554,8.63969849 L9.19587554,8.63969849 C9.19587554,8.53634597 9.25445401,8.4096558 9.37208337,8.26153307 L9.37208337,8.26153307 L12.2206978,5.38957156 C12.3232102,5.28574277 12.375175,5.17476979 12.375175,5.05570008 L12.375175,5.05570008 C12.375175,4.96663593 12.3345479,4.89281271 12.2537663,4.83327785 L12.2537663,4.83327785 C12.1729847,4.773743 12.0581898,4.74373743 11.9112712,4.74373743 L11.9112712,4.74373743 L8.88644892,4.74373743 C8.68000705,4.74373743 8.45230685,4.8704276 8.20193112,5.12237912 L8.20193112,5.12237912 L4.89035773,8.88450582 C4.83083444,8.95880532 4.77178356,8.99595507 4.71320509,8.99595507 L4.71320509,8.99595507 C4.65415421,8.99595507 4.62486497,8.94404068 4.62486497,8.84021189 L4.62486497,8.84021189 L4.62486497,0.49199606 C4.62486497,0.180509687 4.492591,0.0247665006 4.22757065,0.0247665006 L4.22757065,0.0247665006 L0.62830137,0.0247665006 Z" id="path-18"></path>
        <linearGradient x1="-350.7917%" y1="70.1848343%" x2="177.080393%" y2="43.5931161%" id="linearGradient-20">
            <stop stop-color="#FFDF00" offset="0%"></stop>
            <stop stop-color="#F9A818" offset="100%"></stop>
        </linearGradient>
        <path d="M10.2608811,0.475814542 C8.84492712,0.774777661 7.28331616,1.4887334 6.06624,2.36877977 L6.06624,2.36877977 C2.35525479,5.72100316 0.0228756164,10.5736565 0.0228756164,15.9723035 L0.0228756164,15.9723035 C0.0228756164,17.6116881 0.239493699,19.2019473 0.642384658,20.7145416 L0.642384658,20.7145416 C1.46917479,23.811313 3.08260603,26.5843246 5.26139178,28.8047924 L5.26139178,28.8047924 C6.60498411,30.1760927 8.16566137,31.3363878 9.88273315,32.23047 L9.88273315,32.23047 C11.3164274,32.9776438 12.8579638,33.5362698 14.4797984,33.8843583 L14.4797984,33.8843583 C14.0451616,33.767393 13.1091288,33.4487798 12.5927934,33.1947313 L12.5927934,33.1947313 C11.2800132,32.5481475 9.93175233,31.6049399 9.00038795,30.5564636 L9.00038795,30.5564636 C6.45372493,27.6978335 7.39536,24.2978883 8.98638247,21.2689568 L8.98638247,21.2689568 C9.25995616,20.7515026 17.9148756,5.74158904 18.2902225,5.07863014 L18.2902225,5.07863014 C16.6954652,2.55685985 14.6086488,0.332181243 11.6170784,0.330777661 L11.6170784,0.330777661 C11.1838422,0.330777661 10.7323989,0.377563751 10.2608811,0.475814542" id="path-21"></path>
        <linearGradient x1="42.1833619%" y1="89.5349224%" x2="59.3909941%" y2="2.50699541%" id="linearGradient-23">
            <stop stop-color="#FFE600" offset="0%"></stop>
            <stop stop-color="#F6A118" offset="100%"></stop>
        </linearGradient>
        <path d="M7.51954192,0.737816649 C5.90424329,1.21643836 4.34403288,1.91448683 2.9290126,2.83570495 L2.9290126,2.83570495 C2.05693808,3.40228451 1.30064219,4.10454373 0.464048219,4.7080843 L0.464048219,4.7080843 C1.68112438,3.82803793 3.24273534,3.11408219 4.65868932,2.81511907 L4.65868932,2.81511907 C8.39348384,2.03285564 10.8626499,4.5321686 12.6880307,7.41793467 L12.6880307,7.41793467 C13.0050214,7.9190137 21.7084932,22.9944278 22.0660997,23.5984362 L22.0660997,23.5984362 C25.4437545,23.4529315 28.7947989,22.5527671 29.9833973,18.9521096 L29.9833973,18.9521096 C30.4880614,17.4193973 30.6962762,15.4403456 30.3918904,13.8421328 L30.3918904,13.8421328 C30.2672416,13.1749631 30.0590268,12.4198356 29.473131,11.0606997 L29.473131,11.0606997 C26.675303,4.55462592 20.2117742,0.000935721812 12.6903649,0.000935721812 L12.6903649,0.000935721812 C10.9606882,0.000935721812 9.17779068,0.244223393 7.51954192,0.737816649" id="path-24"></path>
        <linearGradient x1="17.9099978%" y1="19.6699176%" x2="83.7636981%" y2="81.392494%" id="linearGradient-26">
            <stop stop-color="#FFE600" offset="0%"></stop>
            <stop stop-color="#F6A118" offset="100%"></stop>
        </linearGradient>
        <path d="M28.5828493,5.38414331 C27.394251,8.98480084 24.0432066,9.88496523 20.6655518,10.03047 L20.6655518,10.03047 C20.2902049,10.0463772 13.9896066,10.0445058 8.79217315,10.040295 L8.79217315,10.040295 L1.98364274,10.040295 C0.392620274,13.0692266 -0.549014795,16.4691718 1.99764822,19.3278019 L1.99764822,19.3278019 C3.14936548,20.6214373 4.65868932,21.6142381 6.25764822,22.2547397 L6.25764822,22.2547397 C7.83466521,22.8868198 9.60495781,23.0547819 11.289817,23.0547819 L11.289817,23.0547819 C11.5064351,23.0547819 11.7188515,23.0505711 11.9331353,23.0426175 L11.9331353,23.0426175 C11.9331353,23.0426175 15.5007978,22.9977028 18.8481074,21.4177366 L18.8481074,21.4177366 C23.793909,19.162647 27.5623167,14.7642866 28.9670663,9.40400421 L28.9670663,9.40400421 C29.3545512,7.91386723 29.5632329,6.35495469 29.5632329,4.74364173 L29.5632329,4.74364173 C29.5632329,3.82335933 29.4936723,2.91851633 29.3629545,2.03472708 L29.3629545,2.03472708 C29.2649162,1.37925395 29.079577,0.746706006 28.9689337,0.0963793467 L28.9689337,0.0963793467 C29.246709,1.73342466 29.1061874,3.7985627 28.5828493,5.38414331" id="path-27"></path>
        <linearGradient x1="103.372296%" y1="42.3385696%" x2="-1.02371669%" y2="56.8712764%" id="linearGradient-29">
            <stop stop-color="#FFE600" offset="0%"></stop>
            <stop stop-color="#F6A118" offset="100%"></stop>
        </linearGradient>
    </defs>
    <g id="Symbols" stroke="none" stroke-width="1" fill="none" fill-rule="evenodd">
        <g id="Desktop-/-Organism-/-Nav-/-Footer-/-Default" transform="translate(-181.000000, -60.000000)">
            <g id="Global-/-Atom-/-Logo-/-OMAW-/-Color" transform="translate(181.000000, 60.024173)">
                <g id="Group-33" transform="translate(42.405479, 0.755595)">
                    <g id="Group-14">
                        <path d="M9.43116506e-05,7.93517387 C9.43116506e-05,3.45508957 3.67164684,0.333066386 7.9246307,0.333066386 C12.1818586,0.333066386 15.852468,3.45508957 15.852468,7.93517387 C15.852468,12.4100421 12.1818586,15.5553003 7.9246307,15.5553003 C3.67164684,15.5553003 9.43116506e-05,12.4100421 9.43116506e-05,7.93517387 M11.8121569,7.93517387 C11.8121569,5.5960274 10.4007831,3.78369863 7.9246307,3.78369863 C5.45130768,3.78369863 4.0380476,5.5960274 4.0380476,7.93517387 C4.0380476,10.2695785 5.45130768,12.1046681 7.9246307,12.1046681 C10.4007831,12.1046681 11.8121569,10.2695785 11.8121569,7.93517387" id="Fill-1" fill="#231F20"></path>
                        <polygon id="Fill-3" fill="#231F20" points="30.7428157 0.494810327 41.8715904 0.494810327 41.8715904 3.8506059 34.6954169 3.8506059 34.6954169 6.4453372 41.2670527 6.4453372 41.2670527 9.60861433 34.6954169 9.60861433 34.6954169 12.0150948 41.8715904 12.0150948 41.8715904 15.3694679 30.7428157 15.3694679"></polygon>
                        <polygon id="Fill-5" fill="#231F20" points="20.1873144 7.95342993 28.7409094 15.3696575 29.7646624 15.3696575 29.7646624 0.495 26.0511412 0.495 26.0511412 7.95342993 17.4296417 0.495 16.4747363 0.495 16.4747363 15.3696575 20.1873144 15.3696575"></polygon>
                        <mask id="mask-2" fill="white">
                            <use xlink:href="#path-1"></use>
                        </mask>
                        <g id="Clip-8"></g>
                        <polygon id="Fill-7" fill="#231F20" mask="url(#mask-2)" points="65.8384913 15.3692308 69.7901494 15.3692308 69.7901494 0.494573235 65.8384913 0.494573235"></polygon>
                        <path d="M85.0403903,0.494810327 L90.7519039,0.50808746 C95.0067739,0.50808746 98.2218581,3.32473656 98.2218581,7.93522129 C98.2218581,12.54049 95.0067739,15.3580875 90.7519039,15.3580875 L85.0403903,15.3694679 L85.0403903,0.494810327 Z M90.3166556,11.994705 C92.7055697,11.994705 94.181547,10.4005005 94.181547,7.93522129 C94.181547,5.46567439 92.7055697,3.87099579 90.3166556,3.87099579 L88.9915769,3.87099579 L88.9915769,11.994705 L90.3166556,11.994705 Z" id="Fill-9" fill="#231F20" mask="url(#mask-2)"></path>
                        <polygon id="Fill-10" fill="#231F20" mask="url(#mask-2)" points="74.4466456 7.95342993 83.0002407 15.3696575 84.0230506 15.3696575 84.0230506 0.495 80.310944 0.495 80.310944 7.95342993 71.7347141 0.495 70.7345391 0.495 70.7345391 15.3696575 74.4466456 15.3696575"></polygon>
                        <path d="M62.0067975,0.494810327 L56.792778,7.10113277 L51.57923,0.494810327 L48.6362349,0.494810327 L48.6362349,15.3694679 L52.55064,15.3694679 L52.55064,8.23016333 L56.6918645,13.0464436 C56.7258167,13.0796365 56.7597689,13.0948103 56.792778,13.0933878 C56.8272017,13.0948103 56.8606824,13.0796365 56.894163,13.0464436 L61.0358591,8.23016333 L61.0358591,15.3694679 L64.9502641,15.3694679 L64.9502641,0.494810327 L62.0067975,0.494810327 Z" id="Fill-11" fill="#231F20" mask="url(#mask-2)"></path>
                        <polygon id="Fill-12" fill="#231F20" mask="url(#mask-2)" points="96.8864523 0.829346681 96.3795272 0.829346681 96.3795272 0.589884089 97.6621656 0.589884089 97.6621656 0.829346681 97.1547689 0.829346681 97.1547689 2.30547945 96.8864523 2.30547945"></polygon>
                        <polygon id="Fill-13" fill="#231F20" mask="url(#mask-2)" points="97.9076117 0.554272919 97.9203437 0.554272919 98.7531156 1.52065859 99.5764563 0.554272919 99.5887168 0.554272919 99.5887168 2.30543203 99.3350185 2.30543203 99.3350185 1.19252371 98.7531156 1.89146997 98.7408551 1.89146997 98.16131 1.19252371 98.16131 2.30543203 97.9076117 2.30543203"></polygon>
                    </g>
                    <g id="Group-17" transform="translate(4.279452, 18.324552)">
                        <mask id="mask-4" fill="white">
                            <use xlink:href="#path-3"></use>
                        </mask>
                        <g id="Clip-16"></g>
                        <path d="M6.14354468,0.0247665006 C5.9510688,0.0247665006 5.81039508,0.0623925304 5.72152351,0.135739475 L5.72152351,0.135739475 C5.63217668,0.210515255 5.55090909,0.344349614 5.47724549,0.536766273 L5.47724549,0.536766273 L0.101228051,15.7186312 C0.0570298879,15.8524655 0.0346931818,15.9710589 0.0346931818,16.0748877 L0.0346931818,16.0748877 C0.0346931818,16.2230105 0.071762609,16.3387462 0.145901463,16.4197136 L0.145901463,16.4197136 C0.220040318,16.5016336 0.316040629,16.5425936 0.434377646,16.5425936 L0.434377646,16.5425936 L3.81102226,16.5425936 C4.07763699,16.5425936 4.25490489,16.4311443 4.34425171,16.2087221 L4.34425171,16.2087221 L5.25482892,13.5820442 C5.29902709,13.4186805 5.41023537,13.3367606 5.58845377,13.3367606 L5.58845377,13.3367606 L10.2972215,13.3367606 C10.4003506,13.3367606 10.4711627,13.3553355 10.5082321,13.3924852 L10.5082321,13.3924852 C10.5453015,13.429635 10.5856977,13.5006005 10.6303711,13.603953 L10.6303711,13.603953 L11.4967502,16.1639519 C11.570889,16.4163797 11.7334242,16.5425936 11.9853062,16.5425936 L11.9853062,16.5425936 L16.3390629,16.5425936 C16.4573999,16.5425936 16.5467467,16.4944894 16.6056776,16.3978048 L16.6056776,16.3978048 C16.6646085,16.3015965 16.6945492,16.186337 16.6945492,16.0525026 L16.6945492,16.0525026 C16.6945492,15.9934441 16.6793412,15.9048562 16.6498758,15.7853102 L16.6498758,15.7853102 L11.319007,0.62583042 C11.2448682,0.447702127 11.1374619,0.302913354 10.9967881,0.191464101 L10.9967881,0.191464101 C10.8561144,0.0800148482 10.696906,0.0247665006 10.5196381,0.0247665006 L10.5196381,0.0247665006 L6.14354468,0.0247665006 Z M6.3878227,9.30791772 C6.3878227,9.21885358 6.40208017,9.14455408 6.43202086,9.08501922 L6.43202086,9.08501922 L7.7874312,5.30098369 C7.81689664,5.22668419 7.8610948,5.18905816 7.92050093,5.18905816 L7.92050093,5.18905816 C7.97943182,5.18905816 8.02362998,5.22668419 8.05357067,5.30098369 L8.05357067,5.30098369 L9.3866443,9.10692805 C9.41610974,9.22647404 9.43084247,9.30029726 9.43084247,9.32982655 L9.43084247,9.32982655 C9.43084247,9.47842556 9.34909963,9.55272506 9.18656445,9.55272506 L9.18656445,9.55272506 L6.65396217,9.55272506 C6.47669427,9.55272506 6.3878227,9.47128137 6.3878227,9.30791772 L6.3878227,9.30791772 Z" id="Fill-15" fill="url(#linearGradient-5)" mask="url(#mask-4)"></path>
                    </g>
                    <g id="Group-20" transform="translate(21.397260, 18.714436)">
                        <mask id="mask-7" fill="white">
                            <use xlink:href="#path-6"></use>
                        </mask>
                        <g id="Clip-19"></g>
                        <path d="M2.97094012,0.167604289 C2.74020095,0.167604289 2.61072808,0.317870204 2.58205908,0.61743879 L2.58205908,0.61743879 L2.23618154,3.94929647 C2.22138464,4.12942292 2.13491526,4.21900452 1.97677339,4.21900452 L1.97677339,4.21900452 L0.70146555,4.21900452 C0.384719405,4.21900452 0.226115131,4.36204612 0.226115131,4.64716606 L0.226115131,4.64716606 L0.226115131,6.7629294 C0.226115131,7.09332176 0.399053902,7.25803632 0.744931444,7.25803632 L0.744931444,7.25803632 L1.78210167,7.25803632 C1.91203695,7.25803632 1.99850633,7.28837848 2.04150982,7.34809955 L2.04150982,7.34809955 C2.08451332,7.40878386 2.10670867,7.51329573 2.10670867,7.66356164 L2.10670867,7.66356164 L2.10670867,13.1564551 C2.10670867,14.1013965 2.4373269,14.8373142 3.10041299,15.3622817 L3.10041299,15.3622817 C3.76349908,15.8877307 4.62773054,16.1502145 5.69403216,16.1502145 L5.69403216,16.1502145 C6.90414115,16.1502145 7.87703734,16.0977177 8.61179591,15.9922426 L8.61179591,15.9922426 C9.02934594,15.902661 9.23835216,15.6772621 9.23835216,15.3170092 L9.23835216,15.3170092 L9.2600851,13.5162264 C9.2600851,13.3963026 9.22401766,13.2908275 9.15234517,13.2007643 L9.15234517,13.2007643 C9.07974788,13.1111827 8.98634245,13.0659102 8.87074167,13.0659102 L8.87074167,13.0659102 L7.94177378,13.0659102 C7.42295746,13.0659102 7.04101248,12.9686227 6.79640122,12.773566 L6.79640122,12.773566 C6.55132756,12.5785093 6.42879073,12.2784591 6.42879073,11.8734154 L6.42879073,11.8734154 L6.42879073,7.55086221 C6.42879073,7.35628711 6.52265857,7.25803632 6.70993184,7.25803632 L6.70993184,7.25803632 L8.71999825,7.25803632 C8.89293702,7.25803632 9.02564672,7.21324552 9.11997695,7.1231823 L9.11997695,7.1231823 C9.21291998,7.03311907 9.2600851,6.91319531 9.2600851,6.7629294 L9.2600851,6.7629294 L9.2600851,4.62452985 C9.2600851,4.33989153 9.10148083,4.19684993 8.78473468,4.19684993 L8.78473468,4.19684993 L6.79640122,4.19684993 C6.63779695,4.19684993 6.55872601,4.11449265 6.55872601,3.94929647 L6.55872601,3.94929647 L6.55872601,0.662711213 C6.55872601,0.512445298 6.51895934,0.39252154 6.43988841,0.302458315 L6.43988841,0.302458315 C6.36035507,0.212395091 6.26325041,0.167604289 6.14811203,0.167604289 L6.14811203,0.167604289 L2.97094012,0.167604289 Z" id="Fill-18" fill="url(#linearGradient-8)" mask="url(#mask-7)"></path>
                    </g>
                    <g id="Group-23" transform="translate(35.791781, 18.324552)">
                        <mask id="mask-10" fill="white">
                            <use xlink:href="#path-9"></use>
                        </mask>
                        <g id="Clip-22"></g>
                        <path d="M20.4963174,0.0247665006 C20.0985648,0.0247665006 19.8625618,0.180509687 19.7887813,0.49199606 L19.7887813,0.49199606 L17.5342195,8.99595507 C17.519085,9.08501922 17.4821948,9.12216897 17.4235488,9.10692805 L17.4235488,9.10692805 C17.3644298,9.09263968 17.3204452,9.04024901 17.2906493,8.95166114 L17.2906493,8.95166114 L14.8596764,0.49199606 C14.8152189,0.328632412 14.7409655,0.210515255 14.6383349,0.135739475 L14.6383349,0.135739475 C14.5352314,0.0623925304 14.3730089,0.0247665006 14.1521403,0.0247665006 L14.1521403,0.0247665006 L11.0571429,0.0247665006 C10.6589174,0.0247665006 10.4233874,0.180509687 10.3496069,0.49199606 L10.3496069,0.49199606 L8.02835885,8.84021189 C7.99856288,8.95880532 7.96261853,9.01834018 7.91816105,9.01834018 L7.91816105,9.01834018 C7.85904206,9.01834018 7.8074903,8.92927603 7.76350577,8.75114774 L7.76350577,8.75114774 L5.42050196,0.49199606 C5.37604448,0.328632412 5.30226398,0.210515255 5.19916046,0.135739475 L5.19916046,0.135739475 C5.09558399,0.0623925304 4.93383443,0.0247665006 4.71249294,0.0247665006 L4.71249294,0.0247665006 L1.06508772,0.0247665006 C0.844219178,0.0247665006 0.671118775,0.0800148482 0.545786516,0.191464101 L0.545786516,0.191464101 C0.420927209,0.302913354 0.358024604,0.455322588 0.358024604,0.648215526 L0.358024604,0.648215526 C0.358024604,0.707750383 0.372686113,0.796338251 0.402482084,0.915407965 L0.402482084,0.915407965 L4.91207865,15.9862999 C4.98538619,16.1791928 5.08139543,16.3201714 5.19916046,16.4087592 L5.19916046,16.4087592 C5.31692549,16.4978234 5.48671523,16.5425936 5.70758378,16.5425936 L5.70758378,16.5425936 L8.86879441,16.5425936 C9.08966296,16.5425936 9.26276336,16.4978234 9.38809562,16.4087592 L9.38809562,16.4087592 C9.51342788,16.3201714 9.60565351,16.1791928 9.66429954,15.9862999 L9.66429954,15.9862999 L11.941563,8.19437775 C12.0295321,7.97195553 12.0962183,7.86050627 12.1402028,7.86050627 L12.1402028,7.86050627 C12.1993218,7.86050627 12.2508736,7.95766716 12.2948581,8.15008382 L12.2948581,8.15008382 L14.5943504,15.9862999 C14.6969809,16.3568448 14.962307,16.5425936 15.3898555,16.5425936 L15.3898555,16.5425936 L18.4403954,16.5425936 C18.6612639,16.5425936 18.8310537,16.4978234 18.9488187,16.4087592 L18.9488187,16.4087592 C19.0665837,16.3201714 19.162593,16.1791928 19.2359005,15.9862999 L19.2359005,15.9862999 L23.7237413,0.915407965 C23.7530643,0.796338251 23.7681988,0.707750383 23.7681988,0.648215526 L23.7681988,0.648215526 C23.7681988,0.455322588 23.7052962,0.302913354 23.5799639,0.191464101 L23.5799639,0.191464101 C23.4546316,0.0800148482 23.2815312,0.0247665006 23.0606627,0.0247665006 L23.0606627,0.0247665006 L20.4963174,0.0247665006 Z" id="Fill-21" fill="url(#linearGradient-11)" mask="url(#mask-10)"></path>
                    </g>
                    <g id="Group-26" transform="translate(58.745205, 22.613277)">
                        <mask id="mask-13" fill="white">
                            <use xlink:href="#path-12"></use>
                        </mask>
                        <g id="Clip-25"></g>
                        <path d="M3.12732846,0.926124666 C2.18632451,1.44916917 1.44550381,2.18191132 0.905341857,3.12387128 L0.905341857,3.12387128 C0.364228919,4.06583124 0.0936724505,5.14982897 0.0936724505,6.37634433 L0.0936724505,6.37634433 C0.0936724505,7.55727324 0.356621005,8.60768096 0.882993607,9.52708762 L0.882993607,9.52708762 C1.40889072,10.4464943 2.13829954,11.1681997 3.07169559,11.6917241 L3.07169559,11.6917241 C4.00509163,12.2152484 5.07210167,12.4762908 6.27225023,12.4762908 L6.27225023,12.4762908 C7.47239878,12.4762908 8.54654125,12.2152484 9.49467763,11.6917241 L9.49467763,11.6917241 C10.442814,11.1681997 11.1803062,10.4431353 11.7062033,9.5160509 L11.7062033,9.5160509 C12.2321005,8.58896652 12.495049,7.54191781 12.495049,6.37634433 L12.495049,6.37634433 C12.495049,5.17958012 12.2359044,4.10709897 11.7171397,3.1574613 L11.7171397,3.1574613 C11.198375,2.20830348 10.4689662,1.4678836 9.52843775,0.937161384 L9.52843775,0.937161384 C8.58743379,0.406439167 7.50901187,0.140598201 6.29459848,0.140598201 L6.29459848,0.140598201 C5.12393059,0.140598201 4.06833242,0.402600308 3.12732846,0.926124666 M4.99412055,8.82073762 C4.71976012,8.29721326 4.58329315,7.45218449 4.58329315,6.28613115 L4.58329315,6.28613115 C4.58329315,5.11959796 4.71976012,4.26785118 4.99412055,3.72897139 L4.99412055,3.72897139 C5.26848097,3.19105131 5.70213212,2.92185134 6.29459848,2.92185134 L6.29459848,2.92185134 C6.88706484,2.92185134 7.32071598,3.18769231 7.59460091,3.71793467 L7.59460091,3.71793467 C7.86848584,4.24865689 8.00590381,5.10520224 8.00590381,6.28613115 L8.00590381,6.28613115 C8.00590381,7.43778877 7.86848584,8.27849882 7.59460091,8.80922104 L7.59460091,8.80922104 C7.32071598,9.33994326 6.88706484,9.60578423 6.29459848,9.60578423 L6.29459848,9.60578423 C5.70213212,9.60578423 5.26848097,9.34378212 4.99412055,8.82073762" id="Fill-24" fill="url(#linearGradient-14)" mask="url(#mask-13)"></path>
                    </g>
                    <g id="Group-29" transform="translate(72.361644, 22.613277)">
                        <mask id="mask-16" fill="white">
                            <use xlink:href="#path-15"></use>
                        </mask>
                        <g id="Clip-28"></g>
                        <path d="M6.18020447,0.723624868 C5.54913886,1.11278917 5.05747282,1.58400908 4.70520634,2.13680473 L4.70520634,2.13680473 C4.63126806,2.22653806 4.55827167,2.27116479 4.48527527,2.27116479 L4.48527527,2.27116479 C4.38213843,2.27116479 4.33080548,2.20446462 4.33080548,2.06962471 L4.33080548,2.06962471 L4.33080548,0.813358191 C4.33080548,0.678998136 4.29454275,0.571030234 4.22107541,0.488494772 L4.22107541,0.488494772 C4.14760807,0.406439167 4.05200634,0.364691578 3.93521211,0.364691578 L3.93521211,0.364691578 L0.501084932,0.364691578 C0.222285797,0.364691578 0.0828862293,0.53744022 0.0828862293,0.881018076 L0.0828862293,0.881018076 L0.0828862293,11.6917241 C0.0828862293,11.8860663 0.12291651,12.0281041 0.203918962,12.1173575 L0.203918962,12.1173575 C0.284450469,12.2070909 0.434681759,12.2521975 0.655083778,12.2521975 L0.655083778,12.2521975 L3.75860793,12.2521975 C4.00820851,12.2521975 4.19140591,12.2037319 4.30867109,12.1063208 L4.30867109,12.1063208 C4.42640721,12.0093896 4.48527527,11.8409597 4.48527527,11.6019908 L4.48527527,11.6019908 L4.48527527,5.63592445 C4.48527527,5.24724001 4.6793044,4.89550458 5.06830454,4.58167788 L5.06830454,4.58167788 C5.45683374,4.26785118 5.89339928,4.11045797 6.37800115,4.11045797 L6.37800115,4.11045797 C7.00859582,4.11045797 7.64013237,4.19299343 8.27119798,4.3575845 L8.27119798,4.3575845 C8.40306244,4.38733566 8.50949589,4.37198022 8.59049834,4.31199805 L8.59049834,4.31199805 C8.67102985,4.2529756 8.71153107,4.14788684 8.71153107,3.99817135 L8.71153107,3.99817135 L8.71153107,0.589264813 C8.71153107,0.290313691 8.43979611,0.140598201 7.89679712,0.140598201 L7.89679712,0.140598201 C7.38299668,0.140598201 6.81079913,0.334940423 6.18020447,0.723624868" id="Fill-27" fill="url(#linearGradient-17)" mask="url(#mask-16)"></path>
                    </g>
                    <g id="Group-32" transform="translate(82.087671, 18.324552)">
                        <mask id="mask-19" fill="white">
                            <use xlink:href="#path-18"></use>
                        </mask>
                        <g id="Clip-31"></g>
                        <path d="M0.62830137,0.0247665006 C0.496027397,0.0247665006 0.393042661,0.0690604344 0.319347162,0.158124581 L0.319347162,0.158124581 C0.245651663,0.247188727 0.208803914,0.373878904 0.208803914,0.536766273 L0.208803914,0.536766273 L0.208803914,15.9862999 C0.208803914,16.1791928 0.253210176,16.3201714 0.341550294,16.4087592 L0.341550294,16.4087592 C0.429890411,16.4978234 0.584367515,16.5425936 0.804981605,16.5425936 L0.804981605,16.5425936 L3.91861644,16.5425936 C4.16851977,16.5425936 4.34897926,16.4944894 4.4595225,16.3978048 L4.4595225,16.3978048 C4.57006575,16.3015965 4.62486497,16.1344226 4.62486497,15.8972357 L4.62486497,15.8972357 L4.62486497,13.648247 C4.62486497,13.3367606 4.69100196,13.129103 4.82374834,13.0252742 L4.82374834,13.0252742 L5.88335734,12.0231835 C5.97169746,11.9341193 6.04539295,11.8898254 6.10444384,11.8898254 L6.10444384,11.8898254 C6.19231155,11.8898254 6.27309315,11.9712691 6.34726106,12.1346327 L6.34726106,12.1346327 L7.93691076,15.9634385 C8.09894638,16.3497006 8.3417636,16.5425936 8.66536243,16.5425936 L8.66536243,16.5425936 L12.4413119,16.5425936 C12.5882305,16.5425936 12.702553,16.4978234 12.783807,16.4087592 L12.783807,16.4087592 C12.8645886,16.3201714 12.9047432,16.2163426 12.9047432,16.0972728 L12.9047432,16.0972728 L12.8612818,15.9191446 L9.32814951,9.04024901 C9.23980939,8.86259699 9.19587554,8.72876263 9.19587554,8.63969849 L9.19587554,8.63969849 C9.19587554,8.53634597 9.25445401,8.4096558 9.37208337,8.26153307 L9.37208337,8.26153307 L12.2206978,5.38957156 C12.3232102,5.28574277 12.375175,5.17476979 12.375175,5.05570008 L12.375175,5.05570008 C12.375175,4.96663593 12.3345479,4.89281271 12.2537663,4.83327785 L12.2537663,4.83327785 C12.1729847,4.773743 12.0581898,4.74373743 11.9112712,4.74373743 L11.9112712,4.74373743 L8.88644892,4.74373743 C8.68000705,4.74373743 8.45230685,4.8704276 8.20193112,5.12237912 L8.20193112,5.12237912 L4.89035773,8.88450582 C4.83083444,8.95880532 4.77178356,8.99595507 4.71320509,8.99595507 L4.71320509,8.99595507 C4.65415421,8.99595507 4.62486497,8.94404068 4.62486497,8.84021189 L4.62486497,8.84021189 L4.62486497,0.49199606 C4.62486497,0.180509687 4.492591,0.0247665006 4.22757065,0.0247665006 L4.22757065,0.0247665006 L0.62830137,0.0247665006 Z" id="Fill-30" fill="url(#linearGradient-20)" mask="url(#mask-19)"></path>
                    </g>
                </g>
                <g id="Group-20" transform="translate(0.000000, 2.339305)">
                    <mask id="mask-22" fill="white">
                        <use xlink:href="#path-21"></use>
                    </mask>
                    <g id="Clip-19"></g>
                    <path d="M10.2608811,0.475814542 C8.84492712,0.774777661 7.28331616,1.4887334 6.06624,2.36877977 L6.06624,2.36877977 C2.35525479,5.72100316 0.0228756164,10.5736565 0.0228756164,15.9723035 L0.0228756164,15.9723035 C0.0228756164,17.6116881 0.239493699,19.2019473 0.642384658,20.7145416 L0.642384658,20.7145416 C1.46917479,23.811313 3.08260603,26.5843246 5.26139178,28.8047924 L5.26139178,28.8047924 C6.60498411,30.1760927 8.16566137,31.3363878 9.88273315,32.23047 L9.88273315,32.23047 C11.3164274,32.9776438 12.8579638,33.5362698 14.4797984,33.8843583 L14.4797984,33.8843583 C14.0451616,33.767393 13.1091288,33.4487798 12.5927934,33.1947313 L12.5927934,33.1947313 C11.2800132,32.5481475 9.93175233,31.6049399 9.00038795,30.5564636 L9.00038795,30.5564636 C6.45372493,27.6978335 7.39536,24.2978883 8.98638247,21.2689568 L8.98638247,21.2689568 C9.25995616,20.7515026 17.9148756,5.74158904 18.2902225,5.07863014 L18.2902225,5.07863014 C16.6954652,2.55685985 14.6086488,0.332181243 11.6170784,0.330777661 L11.6170784,0.330777661 C11.1838422,0.330777661 10.7323989,0.377563751 10.2608811,0.475814542" id="Fill-18" fill="url(#linearGradient-23)" mask="url(#mask-22)"></path>
                </g>
                <g id="Group-23" transform="translate(5.602192, -0.000000)">
                    <mask id="mask-25" fill="white">
                        <use xlink:href="#path-24"></use>
                    </mask>
                    <g id="Clip-22"></g>
                    <path d="M7.51954192,0.737816649 C5.90424329,1.21643836 4.34403288,1.91448683 2.9290126,2.83570495 L2.9290126,2.83570495 C2.05693808,3.40228451 1.30064219,4.10454373 0.464048219,4.7080843 L0.464048219,4.7080843 C1.68112438,3.82803793 3.24273534,3.11408219 4.65868932,2.81511907 L4.65868932,2.81511907 C8.39348384,2.03285564 10.8626499,4.5321686 12.6880307,7.41793467 L12.6880307,7.41793467 C13.0050214,7.9190137 21.7084932,22.9944278 22.0660997,23.5984362 L22.0660997,23.5984362 C25.4437545,23.4529315 28.7947989,22.5527671 29.9833973,18.9521096 L29.9833973,18.9521096 C30.4880614,17.4193973 30.6962762,15.4403456 30.3918904,13.8421328 L30.3918904,13.8421328 C30.2672416,13.1749631 30.0590268,12.4198356 29.473131,11.0606997 L29.473131,11.0606997 C26.675303,4.55462592 20.2117742,0.000935721812 12.6903649,0.000935721812 L12.6903649,0.000935721812 C10.9606882,0.000935721812 9.17779068,0.244223393 7.51954192,0.737816649" id="Fill-21" fill="url(#linearGradient-26)" mask="url(#mask-25)"></path>
                </g>
                <g id="Group-26" transform="translate(7.002740, 13.567966)">
                    <mask id="mask-28" fill="white">
                        <use xlink:href="#path-27"></use>
                    </mask>
                    <g id="Clip-25"></g>
                    <path d="M28.5828493,5.38414331 C27.394251,8.98480084 24.0432066,9.88496523 20.6655518,10.03047 L20.6655518,10.03047 C20.2902049,10.0463772 13.9896066,10.0445058 8.79217315,10.040295 L8.79217315,10.040295 L1.98364274,10.040295 C0.392620274,13.0692266 -0.549014795,16.4691718 1.99764822,19.3278019 L1.99764822,19.3278019 C3.14936548,20.6214373 4.65868932,21.6142381 6.25764822,22.2547397 L6.25764822,22.2547397 C7.83466521,22.8868198 9.60495781,23.0547819 11.289817,23.0547819 L11.289817,23.0547819 C11.5064351,23.0547819 11.7188515,23.0505711 11.9331353,23.0426175 L11.9331353,23.0426175 C11.9331353,23.0426175 15.5007978,22.9977028 18.8481074,21.4177366 L18.8481074,21.4177366 C23.793909,19.162647 27.5623167,14.7642866 28.9670663,9.40400421 L28.9670663,9.40400421 C29.3545512,7.91386723 29.5632329,6.35495469 29.5632329,4.74364173 L29.5632329,4.74364173 C29.5632329,3.82335933 29.4936723,2.91851633 29.3629545,2.03472708 L29.3629545,2.03472708 C29.2649162,1.37925395 29.079577,0.746706006 28.9689337,0.0963793467 L28.9689337,0.0963793467 C29.246709,1.73342466 29.1061874,3.7985627 28.5828493,5.38414331" id="Fill-24" fill="url(#linearGradient-29)" mask="url(#mask-28)"></path>
                </g>
            </g>
        </g>
    </g>
</svg>