<?xml version="1.0" encoding="UTF-8"?>
<svg width="24px" height="21px" viewBox="0 0 24 21" version="1.1" xmlns="http://www.w3.org/2000/svg" xmlns:xlink="http://www.w3.org/1999/xlink">
    <title>Global / Atom / Icon / Twitter</title>
    <g id="Design" stroke="none" stroke-width="1" fill="none" fill-rule="evenodd">
        <g id="OMAW_Hifi_BecomeAMember_D_Default_1920px" transform="translate(-1427.000000, -1977.000000)" fill="#010F3A">
            <g id="Desktop-/-Organism-/-Nav-/-Footer-/-Default" transform="translate(0.000000, 1631.000000)">
                <g id="Group-13" transform="translate(1379.000000, 344.000000)">
                    <g id="Global-/-Atom-/-Icon-/-Twitter" transform="translate(48.000000, 2.000000)">
                        <path d="M2.20611456,19.1996935 C1.60914195,18.8948734 1.01022047,18.5936853 0.416525485,18.2823985 C0.279041956,18.2103791 0.115337342,18.161126 0,17.9199983 C2.5967733,18.0336525 4.94214309,17.4139136 7.05054867,15.7727926 C6.27366043,15.6623274 5.57844733,15.5158968 4.93071565,15.1890191 C3.81321906,14.6251772 3.06175464,13.730737 2.54025623,12.6191755 C2.43041114,12.3851346 2.43501755,12.2452593 2.77730902,12.2707717 C3.34965507,12.3132924 3.92784772,12.3423482 4.49762482,12.1625212 C4.40726838,12.0277838 4.25180215,12.0364651 4.12565746,11.9892494 C2.06225293,11.2167904 0.921015624,9.72449174 0.646757245,7.54938184 C0.601136099,7.1871588 0.691846881,7.1064581 1.04149088,7.27335176 C1.55838289,7.5199717 2.10202748,7.70015308 2.71281932,7.66569361 C2.49764697,7.43767647 2.29983723,7.23384296 2.108317,7.02416287 C0.69574461,5.47791609 0.36550067,3.70374076 0.995426812,1.72768079 C1.03086071,1.61659551 1.05406992,1.5017011 1.08294854,1.38866696 C1.08294854,1.38866696 1.08339147,1.38707243 1.08339147,1.38707243 C1.26587605,0.906943098 1.50957269,1.11556018 1.75362367,1.32754348 C1.75362367,1.32754348 1.7534465,1.33640196 1.75362367,1.3361362 C1.91095018,1.683477 2.20327985,1.90954527 2.48276473,2.14730674 C4.37360617,4.06454644 6.65404334,5.27930909 9.26224407,5.89842789 C9.89332182,6.04831328 10.5353841,6.13246879 11.1810783,6.19997037 C11.573243,6.24107369 11.6572213,6.1161692 11.6021216,5.7363178 C11.2264337,3.14858014 12.9900674,0.625155014 15.5472434,0.114198188 C17.1969571,-0.215514243 18.6786256,0.163096969 19.9248358,1.32338 C20.1559534,1.53864093 20.3652792,1.59090594 20.6781605,1.50993948 C21.5966958,1.2722666 22.4575624,0.900564996 23.402673,0.397757966 C23.1844888,1.10377841 22.8699244,1.63174351 22.4705843,2.10762077 C22.2004894,2.42944916 21.8920373,2.71912129 21.601125,3.02358706 C21.5501002,3.03590034 21.4650589,3.04059534 21.504922,3.113412 C21.5345979,3.16771445 21.6063515,3.14007601 21.6432028,3.08187583 C22.4501213,3.0570721 23.1764276,2.71566648 24,2.45168393 C23.7052785,3.0239414 23.3222381,3.43639199 22.9360086,3.84432475 C22.733681,4.05799117 22.543401,4.30691431 22.2956294,4.44918141 C21.669601,4.80865832 21.6145013,5.3419385 21.5896976,6.00136337 C21.4425583,9.91680922 19.9975639,13.2994178 17.2688879,16.1195133 C16.6541984,16.7547545 15.9504811,17.2914009 15.2398543,17.8160884 C14.5064612,18.224907 13.7962772,18.6737659 13.018326,19.0028582 C11.6069938,19.5999194 10.1262997,19.902082 8.61601834,20.0915648 C8.52610482,20.0960826 8.43627988,20.1006004 8.34645495,20.1051183 C7.63715687,20.1019292 6.92794738,20.0987401 6.2186493,20.0955511 C6.10216036,20.0866926 5.98558283,20.0777456 5.8690053,20.0688871 C5.0402064,19.9073085 4.2114075,19.7457299 3.3826086,19.5841513 C3.02401754,19.3532109 2.57560155,19.3971489 2.20611456,19.1996935" id="Fill-1"></path>
                    </g>
                </g>
            </g>
        </g>
    </g>
</svg>